<svg width="205" height="147" viewBox="0 0 205 147" fill="none" xmlns="http://www.w3.org/2000/svg">
<rect width="205" height="147" rx="16" fill="#2D3748"/>
<path d="M44.208 104.744C45.1467 104.829 46.2133 104.915 47.408 105C48.688 105 50.1813 105 51.888 105C61.872 105 69.2533 102.483 74.032 97.448C78.896 92.4133 81.328 85.4587 81.328 76.584C81.328 67.2827 79.024 60.2427 74.416 55.464C69.808 50.6853 62.512 48.296 52.528 48.296C51.1627 48.296 49.7547 48.3387 48.304 48.424C46.8533 48.424 45.488 48.5093 44.208 48.68L44.208 104.744ZM101.936 76.584C101.936 84.264 100.741 90.9627 98.352 96.68C95.9627 102.397 92.5493 107.133 88.112 110.888C83.76 114.643 78.4267 117.459 72.112 119.336C65.7973 121.213 58.7147 122.152 50.864 122.152C47.28 122.152 43.0987 121.981 38.32 121.64C33.5413 121.384 28.848 120.787 24.24 119.848L24.24 33.448C28.848 32.5947 33.6267 32.04 38.576 31.784C43.6107 31.4427 47.92 31.272 51.504 31.272C59.0987 31.272 65.968 32.1253 72.112 33.832C78.3413 35.5387 83.6747 38.2267 88.112 41.896C92.5493 45.5653 95.9627 50.2587 98.352 55.976C100.741 61.6933 101.936 68.5627 101.936 76.584Z" fill="#4FD1C5"/>
<path d="M145.239 31.272C158.466 31.272 168.62 33.6187 175.703 38.312C182.786 42.92 186.327 50.5147 186.327 61.096C186.327 71.7627 182.743 79.4853 175.575 84.264C168.407 88.9573 158.167 91.304 144.855 91.304L138.583 91.304V121H118.615V33.576C122.967 32.7227 127.575 32.1253 132.439 31.784C137.303 31.4427 141.57 31.272 145.239 31.272ZM146.519 48.296C145.068 48.296 143.618 48.3387 142.167 48.424C140.802 48.5093 139.607 48.5947 138.583 48.68V74.28L144.855 74.28C151.767 74.28 156.972 73.3413 160.471 71.464C163.97 69.5867 165.719 66.088 165.719 60.968C165.719 58.4933 165.25 56.4453 164.311 54.824C163.458 53.2027 162.178 51.9227 160.471 50.984C158.85 49.96 156.844 49.2773 154.455 48.936C152.066 48.5093 149.42 48.296 146.519 48.296Z" fill="#A0AEC0"/>
</svg>
